<svg xmlns="http://www.w3.org/2000/svg" viewBox="0 0 210 297">
  <g
    fill="currentColor"
    transform="matrix(0.44897158 0 0 0.3945533 -326.20105 -63.949697)"
  >
    <path d="m 1102.54,901.25 h -285.2 c -30.75,0 -58.12,-15.99 -73.22,-42.78 -15.1,-26.79 -14.61,-58.49 1.31,-84.8 L 874.57,560.27 V 383.8 h 170.74 v 176.47 l 129.14,213.4 c 15.92,26.31 16.41,58.01 1.31,84.8 -15.1,26.79 -42.47,42.78 -73.22,42.78 z M 902.32,411.55 V 568.02 L 769.17,788.04 c -10.66,17.63 -10.99,38.86 -0.87,56.81 10.11,17.94 28.45,28.66 49.05,28.66 h 285.2 c 20.6,0 38.93,-10.71 49.05,-28.66 10.12,-17.95 9.79,-39.18 -0.87,-56.81 L 1017.58,568.02 V 411.55 Z" />
    <rect x="757.29999" y="768.76001" width="216.46001" height="27.74" />
    <path d="m 1034.8,847.14 c -35.57,0 -64.51,-28.94 -64.51,-64.51 0,-35.57 28.94,-64.51 64.51,-64.51 35.57,0 64.51,28.94 64.51,64.51 0,35.57 -28.94,64.51 -64.51,64.51 z m 0,-101.26 c -20.27,0 -36.76,16.49 -36.76,36.76 0,20.27 16.49,36.76 36.76,36.76 20.27,0 36.76,-16.49 36.76,-36.76 0,-20.27 -16.49,-36.76 -36.76,-36.76 z" />
    <circle cx="947.82001" cy="647.47998" r="52.799999" />
    <circle cx="924.96997" cy="311.42999" r="44.5" />
    <circle cx="1040.35" cy="235.48" r="57.52" />
    <rect
      x="839.69"
      y="722.63"
      width="110.65"
      height="27.74"
      transform="matrix(0.5329 -0.8462 0.8462 0.5329 -205.1382 1101.394)"
    />
  </g>
</svg>
