<?xml version="1.0" encoding="UTF-8" standalone="no"?>
<svg
   width="16"
   height="16"
   viewBox="0 0 16 16"
   fill="currentColor"
   version="1.1"
   id="svg1"
   sodipodi:docname="plug-in-progress.svg"
   inkscape:version="1.4.3 (0d15f75, 2025-12-25)"
   xmlns:inkscape="http://www.inkscape.org/namespaces/inkscape"
   xmlns:sodipodi="http://sodipodi.sourceforge.net/DTD/sodipodi-0.dtd"
   xmlns="http://www.w3.org/2000/svg"
   xmlns:svg="http://www.w3.org/2000/svg">
  <defs
     id="defs1" />
  <sodipodi:namedview
     id="namedview1"
     pagecolor="#ffffff"
     bordercolor="#000000"
     borderopacity="0.25"
     inkscape:showpageshadow="2"
     inkscape:pageopacity="0.0"
     inkscape:pagecheckerboard="0"
     inkscape:deskcolor="#d1d1d1"
     showgrid="true"
     inkscape:zoom="55.954397"
     inkscape:cx="9.9634708"
     inkscape:cy="11.554052"
     inkscape:window-width="1352"
     inkscape:window-height="820"
     inkscape:window-x="0"
     inkscape:window-y="30"
     inkscape:window-maximized="1"
     inkscape:current-layer="svg1">
    <inkscape:grid
       id="grid1"
       units="px"
       originx="0"
       originy="0"
       spacingx="1"
       spacingy="1"
       empcolor="#0099e5"
       empopacity="0.30196078"
       color="#0099e5"
       opacity="0.14901961"
       empspacing="5"
       enabled="true"
       visible="true" />
  </sodipodi:namedview>
  <path
     d="m 6.7494945,3.0428782 h -0.723 V 0.54287824 c 0,-0.276 -0.224,-0.5 -0.5,-0.5 -0.276,0 -0.5,0.224 -0.5,0.5 V 3.0428782 h -2 V 0.54287824 c 0,-0.276 -0.224,-0.5 -0.5,-0.5 -0.276,0 -0.5,0.224 -0.5,0.5 V 3.0428782 h -0.723 c -0.70399997,0 -1.27699997,0.573 -1.27699997,1.278 v 2.722 c 0,2.036 1.52899997,3.7219998 3.49999997,3.9689998 v 2.531 c 0,0.276 0.224,0.5 0.5,0.5 0.276,0 0.5,-0.224 0.5,-0.5 v -2.531 c 1.971,-0.247 3.5,-1.9319998 3.5,-3.9689998 v -2.722 c 0,-0.705 -0.573,-1.278 -1.277,-1.278 z m 0.277,4 c 0,1.654 -1.346,2.9999998 -3,2.9999998 -1.654,0 -3,-1.3459998 -3,-2.9999998 v -2.722 c 0,-0.153 0.124,-0.278 0.277,-0.278 h 5.445 c 0.153,0 0.277,0.125 0.277,0.278 v 2.722 z"
     id="path1" />
  <path
     d="m 11.480894,7.0191057 c -2.4849997,0 -4.4999997,2.015 -4.4999997,4.5000003 0,2.485 2.015,4.5 4.4999997,4.5 2.485,0 4.5,-2.015 4.5,-4.5 0,-2.4850003 -2.015,-4.5000003 -4.5,-4.5000003 z m 2.121,6.3710003 c -0.285,0.285 -0.624,0.509 -0.998,0.66 -0.373,0.151 -0.773,0.225 -1.176,0.218 -0.403,-0.007 -0.8,-0.095 -1.168,-0.259 -0.096,-0.043 -0.189,-0.09 -0.2799997,-0.143 v 0.152 c 0,0.276 -0.224,0.5 -0.5,0.5 -0.276,0 -0.5,-0.224 -0.5,-0.5 v -1.5 c 0,-0.276 0.224,-0.5 0.5,-0.5 h 1.4999997 c 0.276,0 0.5,0.224 0.5,0.5 0,0.276 -0.224,0.5 -0.5,0.5 h -0.468 c 0.05,0.028 0.102,0.054 0.155,0.077 0.245,0.109 0.51,0.168 0.779,0.173 0.268,0.005 0.535,-0.045 0.784,-0.145 0.249,-0.1 0.475,-0.25 0.665,-0.44 0.195,-0.195 0.512,-0.195 0.707,0 0.195,0.195 0.195,0.512 0,0.707 z m 0.379,-2.871 c 0,0.276 -0.224,0.5 -0.5,0.5 h -1.5 c -0.276,0 -0.5,-0.224 -0.5,-0.5 0,-0.276 0.224,-0.5 0.5,-0.5 h 0.468 c -0.05,-0.028 -0.102,-0.054 -0.155,-0.077 -0.245,-0.109 -0.51,-0.168 -0.779,-0.173 -0.268,-0.005 -0.535,0.045 -0.784,0.145 -0.249,0.1000007 -0.475,0.2500007 -0.665,0.4400007 -0.1949997,0.195 -0.5119997,0.195 -0.7069997,0 -0.195,-0.195 -0.195,-0.5120007 0,-0.7070007 0.285,-0.285 0.624,-0.509 0.9979997,-0.66 0.373,-0.151 0.773,-0.225 1.176,-0.218 0.403,0.007 0.8,0.095 1.168,0.259 0.096,0.043 0.189,0.09 0.28,0.143 v -0.152 c 0,-0.276 0.224,-0.5 0.5,-0.5 0.276,0 0.5,0.224 0.5,0.5 z"
     id="path1-6"
     sodipodi:nodetypes="sssssscsccsssssssscccssssssssscccsssscsccssss" />
</svg>
