<?xml version="1.0" encoding="UTF-8" standalone="no"?>
<svg
   width="16"
   height="16"
   viewBox="0 0 16 16"
   fill="currentColor"
   version="1.1"
   id="svg1"
   sodipodi:docname="plug-not-connected-icon.svg"
   inkscape:version="1.4.3 (0d15f75, 2025-12-25)"
   xmlns:inkscape="http://www.inkscape.org/namespaces/inkscape"
   xmlns:sodipodi="http://sodipodi.sourceforge.net/DTD/sodipodi-0.dtd"
   xmlns="http://www.w3.org/2000/svg"
   xmlns:svg="http://www.w3.org/2000/svg">
  <defs
     id="defs1" />
  <sodipodi:namedview
     id="namedview1"
     pagecolor="#ffffff"
     bordercolor="#000000"
     borderopacity="0.25"
     inkscape:showpageshadow="2"
     inkscape:pageopacity="0.0"
     inkscape:pagecheckerboard="0"
     inkscape:deskcolor="#d1d1d1"
     showgrid="true"
     inkscape:zoom="63.740668"
     inkscape:cx="8.5581156"
     inkscape:cy="9.5151184"
     inkscape:window-width="1352"
     inkscape:window-height="820"
     inkscape:window-x="0"
     inkscape:window-y="30"
     inkscape:window-maximized="1"
     inkscape:current-layer="svg1">
    <inkscape:grid
       id="grid1"
       units="px"
       originx="0"
       originy="0"
       spacingx="1"
       spacingy="1"
       empcolor="#0099e5"
       empopacity="0.30196078"
       color="#0099e5"
       opacity="0.14901961"
       empspacing="5"
       enabled="true"
       visible="true" />
  </sodipodi:namedview>
  <path
     d="m 6.7494945,3.0428782 h -0.723 V 0.54287824 c 0,-0.276 -0.224,-0.5 -0.5,-0.5 -0.276,0 -0.5,0.224 -0.5,0.5 V 3.0428782 h -2 V 0.54287824 c 0,-0.276 -0.224,-0.5 -0.5,-0.5 -0.276,0 -0.5,0.224 -0.5,0.5 V 3.0428782 h -0.723 c -0.70399997,0 -1.27699997,0.573 -1.27699997,1.278 v 2.722 c 0,2.036 1.52899997,3.7219998 3.49999997,3.9689998 v 2.531 c 0,0.276 0.224,0.5 0.5,0.5 0.276,0 0.5,-0.224 0.5,-0.5 v -2.531 c 1.971,-0.247 3.5,-1.9319998 3.5,-3.9689998 v -2.722 c 0,-0.705 -0.573,-1.278 -1.277,-1.278 z m 0.277,4 c 0,1.654 -1.346,2.9999998 -3,2.9999998 -1.654,0 -3,-1.3459998 -3,-2.9999998 v -2.722 c 0,-0.153 0.124,-0.278 0.277,-0.278 h 5.445 c 0.153,0 0.277,0.125 0.277,0.278 v 2.722 z"
     id="path1" />
  <path
     d="m 11.502309,8.0050184 c 0.935,0 1.814,0.364 2.475,1.025 1.365,1.3650496 1.365,3.5850496 0,4.9500496 -0.661,0.661 -1.54,1.025 -2.475,1.025 -0.935,0 -1.8140498,-0.364 -2.4750498,-1.025 -1.365,-1.365 -1.365,-3.585 0,-4.9500496 0.661,-0.661 1.5400498,-1.025 2.4750498,-1.025 z m 0,-1 c -1.152,0 -2.3030498,0.439 -3.1820498,1.318 -1.757,1.7569996 -1.757,4.6070496 0,6.3640496 0.879,0.879 2.0300498,1.318 3.1820498,1.318 1.152,0 2.303,-0.439 3.182,-1.318 1.757,-1.757 1.757,-4.60705 0,-6.3640496 -0.879,-0.879 -2.03,-1.318 -3.182,-1.318 z"
     id="path2" />
  <path
     d="m 12.916309,9.2540073 c -0.192,0 -0.384,0.073 -0.53,0.22 l -0.884,0.8840497 -0.884,-0.8840497 c -0.146,-0.146 -0.338,-0.22 -0.53005,-0.22 -0.1919998,0 -0.3839998,0.073 -0.5299998,0.22 -0.293,0.293 -0.293,0.7680497 0,1.0610497 l 0.8840498,0.884 -0.8840498,0.884 c -0.293,0.293 -0.293,0.768 0,1.061 0.146,0.146 0.338,0.22 0.5299998,0.22 0.19205,0 0.38405,-0.073 0.53005,-0.22 l 0.884,-0.884 0.884,0.884 c 0.146,0.146 0.338,0.22 0.53,0.22 0.192,0 0.384,-0.073 0.53,-0.22 0.293,-0.293 0.293,-0.768 0,-1.061 l -0.884,-0.884 0.884,-0.884 c 0.293,-0.293 0.293,-0.7680497 0,-1.0610497 -0.146,-0.146 -0.338,-0.22 -0.53,-0.22 z"
     id="path3" />
</svg>
